<?xml version="1.0" encoding="utf-8"?>
<svg viewBox="0 0 2000 320" preserveAspectRatio="xMinYMin meet" xmlns="http://www.w3.org/2000/svg">
  <path d="M 126 34 C 120 34 114 35 109 38 C 84 51 82 87 106 102 C 117 109 121 118 112 118 C 108 118 87 129 79 136 C 72 142 72 143 71 160 C 70 171 68 180 65 185 C 63 191 86 208 93 208 C 98 208 93 231 87 239 C 82 244 69 251 57 255 C 53 256 59 294 64 299 C 67 302 70 303 81 302 C 89 301 96 300 97 300 C 99 298 92 288 86 286 C 84 285 81 282 81 280 C 80 279 79 276 78 274 C 77 271 80 269 90 263 C 101 256 103 254 109 241 C 112 233 116 226 117 226 C 121 226 135 248 139 259 C 141 265 144 275 145 281 L 146 293 L 153 292 C 169 290 195 272 195 263 C 195 260 194 260 184 261 C 178 261 170 263 167 263 C 163 264 162 264 159 255 C 157 249 151 239 146 231 L 138 218 L 145 204 C 148 196 151 186 151 182 L 151 176 L 156 180 L 161 185 L 167 179 C 170 176 174 171 176 169 C 177 167 183 163 188 160 L 198 155 L 193 148 C 190 144 187 139 187 137 C 186 132 180 129 175 132 C 173 133 170 134 169 134 C 167 134 165 137 163 141 C 160 147 160 148 163 151 C 165 153 165 154 163 156 C 160 158 159 156 152 146 C 148 139 142 130 139 126 C 131 116 132 110 145 104 C 167 93 172 64 156 45 C 149 38 137 34 126 34 Z M 125 36 L 127 36 C 143 37 159 49 163 65 C 166 81 154 100 138 104 C 131 107 130 107 131 114 C 132 118 134 124 138 128 C 141 131 147 140 151 148 C 155 155 158 162 159 162 C 159 163 161 161 163 160 C 165 158 168 156 169 156 C 171 156 171 155 168 151 C 163 147 163 146 166 141 C 168 138 169 137 169 138 C 169 140 171 140 175 136 C 178 133 180 132 182 134 C 184 136 184 137 182 141 C 180 144 180 147 182 147 C 183 148 183 147 183 146 C 182 141 187 143 190 148 C 193 154 193 155 191 156 C 190 157 187 158 186 158 C 184 158 178 163 172 170 L 161 181 L 147 166 C 139 157 132 150 131 150 C 130 150 134 155 139 161 C 150 172 150 173 149 182 C 147 193 138 213 132 218 C 129 221 125 223 121 223 C 114 223 113 224 107 239 C 101 252 98 255 90 260 C 74 270 74 269 77 278 C 78 283 81 286 83 287 C 85 288 88 290 91 292 C 94 296 94 297 91 298 C 86 302 70 301 65 296 C 58 289 54 256 60 256 C 65 256 80 248 87 241 C 96 233 102 221 103 209 C 103 203 105 193 108 187 C 115 172 118 158 117 138 C 117 129 118 118 118 113 C 120 105 119 105 111 101 C 97 95 89 79 92 63 C 94 55 104 43 113 39 C 117 37 121 36 125 36 Z M 112 141 L 114 145 C 116 152 112 171 106 185 C 103 192 101 198 100 198 C 100 198 99 195 99 191 C 99 185 97 183 94 181 C 90 179 89 178 89 165 L 89 151 L 101 146 L 112 141 Z M 86 184 L 89 184 C 93 184 95 185 95 186 C 95 189 90 189 84 186 C 82 185 82 185 86 184 Z M 71 186 C 72 186 73 187 73 189 C 73 190 72 193 72 195 C 70 198 70 198 68 196 C 66 194 66 191 67 189 C 67 187 70 186 71 186 Z M 79 188 C 80 188 81 191 81 195 C 81 202 79 204 76 200 C 73 196 75 188 79 188 Z M 86 190 C 94 190 98 193 97 199 C 96 205 94 207 87 205 C 83 204 82 190 86 190 Z M 147 278 C 145 265 169 267 175 265 C 181 263 187 262 190 263 C 194 263 194 263 189 270 C 186 273 178 279 171 282 C 164 285 156 288 153 289 C 148 290 148 290 147 278 Z M 371 48 C 358 48 350 52 342 61 C 331 73 329 88 337 103 C 340 108 353 120 357 120 C 358 120 360 122 360 124 C 362 127 358 130 353 130 C 351 130 318 145 316 147 C 315 148 313 155 311 163 C 309 174 306 180 303 182 C 301 183 298 187 296 191 C 293 197 293 197 299 202 C 307 209 325 217 328 215 C 331 211 332 190 329 188 C 327 187 327 184 329 173 L 330 160 L 344 155 L 357 151 L 358 156 C 359 166 355 185 350 197 C 344 210 344 216 346 238 C 347 243 347 248 346 248 C 345 248 339 247 331 245 C 311 241 312 241 314 253 C 316 266 323 282 331 291 C 340 301 342 298 342 281 L 342 268 L 352 269 C 364 269 362 271 367 246 C 369 234 373 235 380 248 C 386 259 386 259 382 266 C 381 270 376 277 373 282 C 370 287 368 291 368 292 C 369 292 377 293 387 294 C 405 295 427 292 427 288 C 427 285 419 281 409 278 C 404 277 400 275 400 275 C 399 275 401 272 402 268 C 407 259 406 254 395 238 L 386 223 L 390 211 C 393 205 395 196 395 191 C 395 184 396 184 399 187 C 406 193 412 191 426 178 C 430 175 437 171 442 169 C 447 167 451 165 451 164 C 451 164 449 159 446 155 C 444 151 441 147 441 145 C 441 144 440 142 438 140 C 436 138 434 138 431 140 C 429 141 426 142 424 142 C 421 142 415 153 416 157 C 416 160 411 168 408 168 C 407 168 405 165 402 161 C 400 157 394 149 388 143 C 376 130 375 125 385 120 C 396 115 405 105 407 95 C 414 71 396 48 371 48 Z M 371 51 C 383 51 395 57 401 67 C 411 83 404 108 387 116 C 382 118 377 120 376 120 C 372 120 377 137 382 141 C 385 143 392 151 397 158 C 402 165 406 172 407 172 C 407 173 410 171 413 168 C 416 165 420 162 421 162 C 423 162 423 161 421 158 C 418 155 418 154 420 149 C 421 147 423 144 424 144 C 425 144 425 145 424 146 C 422 150 425 148 430 144 C 433 141 434 140 437 142 C 438 144 439 146 438 148 C 438 150 439 152 440 153 C 442 154 443 155 442 156 C 441 158 439 157 436 154 C 431 150 431 150 436 156 C 440 160 443 161 444 160 C 445 158 445 158 446 160 C 448 163 446 165 437 168 C 434 170 428 173 424 176 C 421 179 415 183 411 185 L 405 189 L 390 173 C 382 164 375 158 375 159 C 375 160 380 165 385 171 C 394 181 394 181 393 192 C 391 211 375 238 368 233 C 365 232 363 237 363 246 C 363 250 363 257 362 260 C 361 266 361 266 349 266 C 333 266 332 266 336 268 C 339 270 339 273 339 281 C 339 287 338 292 337 292 C 334 292 323 275 319 263 C 314 247 314 244 319 245 C 326 247 341 250 345 250 C 351 250 353 238 348 227 C 345 218 346 213 355 192 C 360 181 360 176 361 156 C 361 144 362 130 362 127 C 364 121 363 120 357 117 C 342 110 335 100 335 85 C 335 74 339 67 348 59 C 355 53 363 51 371 51 Z M 301 188 C 302 188 303 189 305 190 C 307 191 313 194 318 196 C 327 199 327 200 327 205 C 326 213 324 213 313 208 C 307 204 305 202 305 199 C 305 196 305 196 304 198 C 301 201 297 196 299 191 C 299 189 300 188 301 188 Z M 317 189 C 320 189 326 190 327 191 L 327 194 C 326 196 315 192 315 190 C 315 190 316 189 317 189 Z M 380 276 C 384 269 396 276 396 276 C 395 277 399 278 403 279 C 407 280 413 282 417 284 C 423 287 423 287 420 288 C 416 290 373 291 373 289 C 373 289 377 283 380 276 Z M 615 33 C 610 33 605 34 600 36 C 572 49 570 86 597 102 C 605 106 606 107 604 112 C 604 115 603 121 602 125 C 602 130 599 140 595 149 L 587 164 L 591 172 C 595 179 595 180 592 187 C 589 196 589 208 592 213 C 594 215 595 221 595 225 C 595 232 595 232 589 231 C 583 230 583 230 584 234 C 585 237 587 242 589 246 C 591 252 591 253 587 261 C 585 265 580 273 576 279 C 572 284 569 289 569 290 C 569 291 572 292 575 293 C 593 296 628 293 628 288 C 628 287 625 285 623 283 C 619 280 618 277 617 268 L 617 257 L 623 256 C 640 252 642 250 641 243 C 640 240 637 233 634 227 C 630 222 629 218 630 219 C 632 219 635 218 636 216 C 639 213 639 211 638 204 C 636 198 637 194 639 187 C 644 174 641 156 632 135 C 623 114 622 106 626 106 C 628 106 632 104 637 101 C 655 90 660 66 648 50 C 640 38 628 32 615 33 Z M 617 35 C 624 35 633 38 640 44 C 652 54 655 70 647 86 C 643 95 630 104 621 104 C 618 104 617 105 619 107 C 620 108 621 111 621 112 C 621 114 624 122 627 129 C 637 150 640 167 637 181 C 635 193 633 196 628 192 C 627 191 625 190 624 191 C 623 192 618 186 614 179 C 606 165 606 164 619 144 C 622 139 623 136 621 138 C 616 142 605 161 605 165 C 605 167 609 174 612 181 C 618 191 619 194 617 196 C 615 198 615 198 617 198 C 618 198 620 197 620 196 C 622 193 629 194 632 198 C 636 202 636 202 632 201 C 629 200 629 200 634 206 C 638 211 638 213 635 214 C 631 217 630 217 627 213 C 625 210 625 210 628 208 C 629 207 630 206 628 206 C 625 206 615 216 616 218 C 617 218 619 217 620 215 C 622 213 624 212 625 213 C 626 214 625 216 623 217 C 616 222 612 221 610 215 C 610 212 606 201 602 191 C 598 181 594 171 593 168 C 591 164 592 160 600 145 C 604 135 609 126 609 125 C 610 124 609 124 607 125 C 605 126 605 125 606 120 C 609 106 609 106 600 100 C 588 94 583 87 581 75 C 578 52 597 35 617 35 Z M 596 183 L 600 192 C 602 197 605 205 607 211 C 608 216 608 220 608 220 C 603 220 597 216 595 212 C 591 206 591 202 594 191 L 596 183 Z M 601 220 C 604 220 609 227 609 231 C 609 234 603 236 601 233 C 599 231 599 220 601 220 Z M 623 221 C 626 221 628 224 632 231 C 641 246 641 247 630 251 C 625 252 618 254 615 255 C 610 256 610 257 612 260 C 614 262 615 265 615 270 C 614 280 611 280 603 269 C 597 261 587 239 587 234 C 587 233 592 234 598 235 C 608 238 616 239 620 238 C 621 238 619 235 616 231 L 611 225 L 618 222 C 620 222 622 221 623 221 Z M 613 232 C 615 232 615 233 615 234 C 615 235 615 236 613 236 C 612 236 611 235 611 234 C 611 233 612 232 613 232 Z M 580 278 C 584 273 598 278 603 279 C 607 280 613 282 617 283 C 624 286 624 287 620 288 C 616 290 573 291 573 289 C 573 289 576 284 580 278 Z M 871 19 C 849 18 829 38 832 61 C 834 73 840 81 851 88 C 858 92 861 96 861 98 C 861 101 854 109 842 121 L 823 139 L 825 160 C 827 176 827 184 825 192 C 822 204 824 206 835 206 C 838 206 841 207 841 208 C 841 211 821 239 809 253 L 797 266 L 801 276 C 804 281 808 287 810 290 C 814 294 815 295 830 293 C 849 292 853 290 845 283 C 842 280 838 278 836 278 C 834 278 830 277 829 274 C 825 271 826 270 836 254 C 842 245 850 232 854 225 C 859 215 862 212 866 211 C 872 210 883 215 883 219 C 883 219 880 221 875 222 C 864 226 863 227 865 232 C 874 249 910 273 909 262 C 909 258 902 243 900 241 C 895 239 897 235 905 230 C 910 227 913 224 913 222 C 913 221 907 214 900 207 L 887 194 L 890 185 C 894 177 894 177 902 178 C 907 178 912 180 914 181 C 922 187 927 185 932 175 C 934 170 936 162 937 157 C 938 150 937 149 933 148 C 928 146 915 148 912 151 C 911 152 910 154 911 156 C 912 158 910 158 904 158 C 898 157 896 156 896 152 C 895 145 887 122 882 112 C 878 104 878 92 881 92 C 882 92 887 89 892 86 C 916 70 913 34 886 22 C 881 20 876 19 871 19 Z M 871 21 C 879 21 887 24 893 30 C 906 40 909 58 901 73 C 896 81 883 90 875 90 C 872 90 871 91 873 92 C 874 92 875 96 876 100 C 877 104 880 115 885 125 C 891 141 892 145 892 159 C 892 172 892 177 887 186 L 882 196 L 888 199 C 897 205 909 218 909 222 C 909 224 906 228 898 232 C 890 236 888 238 891 238 C 894 238 897 241 900 247 C 903 252 905 257 905 259 C 904 264 889 256 878 243 C 867 232 865 228 871 227 C 873 226 878 224 882 222 L 890 219 L 881 213 C 875 209 870 208 864 208 L 855 208 L 856 199 C 857 190 855 183 851 180 C 850 179 850 176 853 172 C 857 164 861 147 861 140 C 861 137 863 134 864 133 C 866 132 867 131 867 130 C 867 128 853 136 843 143 L 839 146 L 842 163 C 845 178 845 179 842 182 C 839 184 839 185 844 184 C 848 183 850 184 852 187 C 856 192 856 195 853 193 C 851 192 851 193 852 198 C 854 206 848 209 844 203 C 842 200 841 200 840 202 C 839 204 828 204 826 202 C 826 201 827 197 828 192 C 829 186 829 176 828 162 L 826 140 L 840 126 C 848 119 858 111 861 108 C 865 106 867 104 866 104 C 864 104 863 102 863 98 C 863 92 862 90 855 87 C 850 85 844 80 841 75 C 834 65 833 48 840 38 C 848 27 859 21 871 21 Z M 858 136 C 860 136 857 153 853 164 C 851 170 848 174 848 174 C 847 174 845 170 845 165 C 844 160 843 154 842 152 C 841 148 843 146 849 142 C 854 139 858 136 858 136 Z M 929 150 C 936 150 937 153 933 160 C 931 164 923 166 920 162 C 920 161 920 158 921 155 C 922 151 923 150 929 150 Z M 915 152 C 917 152 917 154 917 157 C 917 159 916 163 915 164 C 914 166 913 165 913 160 C 913 156 914 152 915 152 Z M 928 167 C 931 167 931 167 931 169 C 931 171 929 172 924 172 C 915 172 916 168 925 167 L 928 167 Z M 925 174 C 928 174 928 175 926 179 C 926 181 924 182 924 182 C 914 180 913 176 922 175 C 923 174 925 174 925 174 Z M 842 197 C 840 197 836 197 833 198 C 829 199 829 200 832 200 C 835 200 839 199 841 198 C 845 197 846 197 842 197 Z M 812 254 C 818 248 826 275 826 275 C 828 278 832 280 833 280 C 835 280 839 282 841 283 C 845 286 845 287 843 288 C 842 289 834 290 827 290 C 814 290 813 290 809 284 C 807 281 804 276 803 272 C 801 267 802 266 812 254 Z M 1123 34 C 1104 34 1087 48 1086 67 C 1085 73 1085 80 1086 83 C 1088 89 1098 102 1106 105 C 1115 110 1113 114 1097 123 C 1089 128 1079 134 1075 137 C 1068 142 1068 142 1066 159 C 1066 168 1064 181 1062 189 C 1060 196 1060 203 1060 204 C 1061 205 1065 207 1069 207 C 1073 208 1077 210 1078 211 C 1080 215 1089 209 1089 204 C 1089 201 1090 198 1091 197 C 1094 195 1089 180 1085 180 C 1084 180 1083 174 1083 166 L 1083 152 L 1094 147 C 1109 140 1109 141 1109 152 C 1109 163 1106 177 1099 191 C 1096 198 1095 203 1096 211 C 1098 229 1085 242 1061 245 C 1057 246 1053 248 1052 250 C 1050 254 1055 286 1057 289 C 1063 296 1089 295 1089 288 C 1089 286 1087 283 1085 281 C 1072 270 1070 265 1079 264 C 1089 262 1098 254 1105 242 L 1111 230 L 1118 238 C 1131 252 1139 275 1139 294 L 1139 303 L 1146 301 C 1169 297 1199 272 1186 267 C 1183 266 1170 268 1163 271 C 1161 272 1159 269 1154 259 C 1151 251 1145 240 1140 233 L 1132 220 L 1139 206 C 1144 196 1146 189 1147 180 C 1147 174 1148 168 1149 168 C 1149 168 1152 170 1156 172 L 1163 176 L 1171 169 C 1175 165 1180 162 1181 162 C 1187 162 1193 157 1193 152 C 1193 147 1188 133 1183 126 C 1180 122 1180 121 1174 124 C 1171 126 1167 130 1164 134 C 1160 141 1160 141 1163 145 C 1165 147 1165 149 1163 151 C 1161 154 1159 152 1145 138 C 1127 118 1125 112 1136 107 C 1169 94 1170 53 1138 38 C 1133 36 1128 34 1123 34 Z M 1122 38 C 1143 37 1158 51 1158 71 C 1158 77 1156 85 1155 88 C 1151 96 1140 104 1132 105 C 1126 107 1126 107 1128 116 C 1128 121 1131 130 1134 136 C 1142 153 1146 171 1144 182 C 1143 192 1132 216 1129 216 C 1126 216 1127 220 1135 230 C 1140 237 1152 259 1159 274 C 1159 274 1164 273 1171 271 C 1180 269 1184 268 1186 270 C 1189 273 1175 287 1162 293 C 1141 302 1141 302 1141 292 C 1141 269 1132 248 1113 229 C 1099 216 1098 215 1098 206 C 1098 201 1100 193 1104 186 C 1110 174 1114 151 1112 145 C 1111 143 1112 141 1114 140 C 1119 136 1103 140 1092 145 L 1081 150 L 1081 165 C 1081 177 1081 180 1078 182 C 1075 184 1075 184 1080 184 C 1085 183 1086 184 1088 188 C 1090 194 1090 198 1087 194 C 1086 192 1086 193 1086 199 C 1086 205 1086 207 1083 208 C 1081 208 1079 207 1078 203 C 1077 200 1076 198 1072 198 C 1070 198 1067 199 1066 200 C 1066 202 1067 202 1070 201 C 1073 200 1075 201 1075 202 C 1075 204 1064 205 1063 202 C 1062 202 1063 197 1064 192 C 1066 187 1068 174 1069 164 C 1069 153 1070 144 1071 143 C 1074 139 1110 118 1115 118 C 1119 118 1120 118 1118 117 C 1116 116 1115 113 1115 110 C 1115 107 1112 105 1108 103 C 1088 95 1081 68 1094 51 C 1101 42 1110 38 1122 38 Z M 1178 125 C 1179 125 1181 127 1182 129 C 1186 134 1186 135 1181 139 C 1175 146 1174 145 1171 138 C 1169 132 1170 129 1175 126 C 1176 126 1177 126 1178 125 Z M 1165 138 C 1166 137 1168 139 1170 142 C 1175 150 1174 152 1168 145 C 1165 143 1164 140 1164 138 L 1165 138 Z M 1185 138 C 1187 138 1187 139 1188 141 C 1189 143 1188 146 1185 148 C 1182 150 1181 152 1183 152 C 1184 152 1186 151 1187 150 C 1189 148 1190 148 1191 151 C 1191 153 1191 155 1189 156 C 1184 159 1182 159 1180 152 C 1177 147 1177 146 1180 142 C 1183 140 1184 139 1185 138 Z M 1067 247 C 1082 243 1070 263 1070 263 C 1068 265 1075 278 1078 279 C 1083 281 1088 286 1086 288 C 1086 289 1080 290 1073 290 C 1059 290 1057 288 1057 266 L 1056 250 L 1067 247 Z M 1373 53 C 1363 54 1354 57 1347 65 C 1330 84 1333 110 1355 122 C 1364 128 1365 131 1360 132 C 1351 135 1339 141 1329 148 C 1319 154 1318 156 1312 170 C 1309 178 1304 190 1301 196 C 1298 203 1295 209 1295 210 C 1295 212 1316 221 1320 221 C 1322 221 1324 220 1325 218 C 1325 216 1327 213 1328 211 C 1330 206 1330 198 1327 193 C 1325 189 1326 185 1328 177 C 1331 167 1332 166 1340 163 C 1345 161 1351 159 1355 158 C 1361 157 1361 157 1361 164 C 1361 174 1357 189 1351 202 C 1347 212 1346 224 1349 231 C 1350 233 1351 237 1351 240 C 1351 245 1351 245 1344 245 C 1340 245 1333 244 1328 242 C 1324 241 1320 239 1320 239 C 1318 239 1322 260 1327 269 C 1332 282 1344 294 1347 292 C 1350 291 1349 278 1346 271 C 1345 268 1346 267 1351 267 C 1354 267 1360 266 1363 265 C 1369 263 1370 262 1369 254 C 1369 249 1369 245 1370 245 C 1371 245 1374 249 1377 254 C 1381 261 1382 265 1380 270 C 1379 276 1373 291 1368 302 C 1367 302 1370 304 1374 305 C 1382 308 1412 306 1420 303 C 1423 302 1425 300 1425 299 C 1423 294 1414 289 1406 288 L 1398 287 L 1402 273 C 1406 259 1406 259 1402 253 C 1400 251 1395 244 1392 239 L 1385 230 L 1392 216 C 1397 206 1398 199 1398 191 C 1398 184 1399 179 1400 179 C 1401 179 1405 181 1409 182 C 1417 185 1417 185 1425 180 C 1430 178 1434 175 1435 175 C 1437 175 1440 174 1444 172 C 1449 169 1450 168 1448 163 C 1447 155 1441 142 1437 136 C 1434 132 1434 132 1426 139 C 1416 149 1414 153 1419 157 C 1422 161 1422 161 1419 162 C 1417 163 1410 159 1400 150 C 1392 143 1384 137 1383 137 C 1382 137 1381 135 1381 132 C 1381 129 1383 127 1386 126 C 1393 125 1405 114 1409 106 C 1413 99 1413 82 1409 74 C 1402 60 1387 53 1373 53 Z M 1374 56 C 1382 56 1390 59 1397 65 C 1409 74 1413 90 1407 104 C 1403 113 1391 123 1383 124 C 1376 126 1376 126 1377 131 C 1378 134 1381 141 1384 146 C 1399 177 1399 204 1383 225 C 1381 228 1383 231 1391 243 L 1402 258 L 1400 269 C 1398 275 1397 282 1396 284 C 1395 288 1396 289 1404 290 C 1413 291 1424 298 1421 300 C 1421 300 1414 302 1407 303 C 1393 305 1390 305 1379 303 C 1371 302 1371 301 1377 288 C 1380 283 1382 274 1383 269 C 1384 262 1383 259 1378 251 C 1374 246 1367 239 1361 235 C 1347 226 1346 220 1356 199 C 1360 188 1362 180 1363 169 L 1364 153 L 1357 154 C 1353 155 1345 158 1339 161 C 1329 166 1328 167 1325 179 C 1322 187 1320 191 1318 191 C 1317 191 1316 192 1316 193 C 1317 194 1319 195 1321 195 C 1325 195 1327 199 1327 204 C 1327 206 1327 207 1325 206 C 1324 206 1323 207 1323 209 C 1323 219 1316 223 1314 214 C 1313 211 1312 210 1312 211 C 1310 213 1303 213 1300 210 C 1298 210 1301 202 1305 193 C 1309 184 1314 172 1316 167 C 1319 160 1322 156 1329 151 C 1340 143 1357 135 1363 135 C 1366 135 1367 134 1367 130 C 1367 126 1365 124 1358 121 C 1347 116 1339 105 1339 92 C 1339 79 1341 74 1351 65 C 1358 59 1366 56 1374 56 Z M 1433 138 C 1434 138 1435 139 1436 140 C 1438 143 1439 145 1439 146 C 1439 148 1437 151 1435 153 L 1430 158 L 1427 152 C 1424 146 1424 146 1429 141 C 1431 139 1432 138 1433 138 Z M 1431 173 C 1430 173 1416 168 1420 166 C 1424 163 1433 166 1433 170 C 1433 172 1433 173 1431 173 Z M 1420 151 C 1421 151 1423 152 1425 155 C 1428 158 1429 161 1428 161 C 1425 161 1419 154 1420 151 Z M 1441 152 C 1444 152 1444 158 1439 161 C 1437 163 1435 165 1437 165 C 1438 165 1440 164 1440 163 C 1442 160 1445 161 1445 165 C 1445 167 1444 169 1442 170 C 1438 172 1438 172 1434 165 C 1431 159 1432 156 1438 153 C 1439 153 1440 152 1441 152 Z M 1323 248 C 1323 246.443 1332.98 246.316 1336.363 249.843 C 1341.67 255.375 1341.557 266.893 1344 273 C 1345 276 1345 281 1345 284 L 1344 290 L 1338 283 C 1331 275 1323 256 1323 248 Z M 1615 31 L 1609 31 C 1574 36 1565 81 1594 99 C 1605 106 1606 109 1603 116 C 1599 123 1593 160 1592 175 C 1592 182 1591 191 1589 196 C 1587 202 1587 206 1589 211 C 1593 221 1592 234 1588 234 C 1585 234 1585 236 1587 243 C 1590 250 1585 270 1576 289 C 1571 302 1571 303 1579 305 C 1587 306 1616 305 1623 302 C 1628 300 1629 299 1627 296 C 1624 291 1613 286 1607 286 C 1602 286 1601 286 1603 281 C 1604 273 1604 273 1611 278 C 1614 280 1618 282 1619 282 C 1622 282 1622 273 1618 265 C 1617 261 1615 257 1615 257 C 1615 257 1618 257 1622 258 C 1628 260 1637 259 1639 257 C 1640 257 1639 250 1637 242 C 1636 234 1635 225 1634 222 C 1634 219 1633 215 1631 213 C 1629 211 1630 208 1634 197 C 1638 189 1639 180 1639 173 C 1639 163 1638 157 1631 130 C 1630 125 1627 120 1625 118 C 1620 113 1622 105 1628 103 C 1641 99 1653 83 1653 68 C 1653 48 1636 31 1615 31 Z M 1614 34 C 1621 34 1628 35 1631 37 C 1634 39 1639 43 1642 46 C 1658 65 1648 97 1624 101 C 1618 103 1618 103 1619 110 C 1620 114 1623 123 1626 130 C 1638 157 1640 174 1633 193 C 1626 210 1623 210 1614 189 L 1607 173 L 1613 157 C 1621 134 1620 135 1618 137 C 1616 138 1613 147 1610 156 L 1604 173 L 1611 190 C 1618 205 1619 207 1616 210 C 1612 213 1614 213 1620 210 C 1623 208 1625 209 1628 211 C 1632 215 1633 219 1629 217 C 1626 215 1627 218 1631 223 C 1633 227 1633 229 1631 231 C 1629 234 1628 234 1625 231 C 1623 229 1622 229 1621 230 C 1621 231 1617 233 1614 233 C 1607 235 1607 235 1607 226 C 1607 222 1604 208 1600 197 L 1593 175 L 1598 150 C 1600 136 1603 122 1605 119 C 1609 107 1608 104 1597 98 C 1590 94 1586 90 1583 84 C 1575 67 1582 45 1597 37 C 1601 35 1608 34 1614 34 Z M 1594 188 C 1596 188 1603 216 1605 230 C 1608 245 1607 259 1601 279 L 1598 288 L 1607 289 C 1617 290 1627 296 1624 299 C 1621 301 1581 303 1576 301 C 1574 300 1575 297 1578 290 C 1590 268 1597 224 1592 211 C 1590 206 1590 202 1591 196 C 1593 192 1594 188 1594 188 Z M 1624 222 C 1623 222 1620 224 1616 227 C 1613 230 1611 232 1612 232 C 1613 232 1615 231 1616 230 C 1617 229 1620 227 1622 225 C 1625 224 1626 222 1624 222 Z M 1614 236 C 1616 236 1618 237 1618 238 C 1619 239 1618 240 1617 240 C 1615 240 1613 239 1612 238 C 1612 237 1613 236 1614 236 Z M 1874 20 C 1857 20 1845 28 1838 43 C 1831 60 1838 79 1854 89 C 1859 92 1863 96 1863 97 C 1863 102 1858 113 1853 118 C 1850 121 1844 128 1841 133 L 1834 143 L 1836 160 C 1837 173 1837 177 1835 181 C 1833 183 1831 188 1831 191 C 1829 197 1830 198 1836 201 C 1840 203 1843 206 1843 207 C 1843 211 1826 245 1816 262 C 1804 281 1804 284 1815 298 L 1820 305 L 1839 304 C 1862 303 1865 300 1856 292 C 1852 288 1847 286 1844 286 C 1832 286 1832 283 1846 251 C 1853 234 1859 219 1860 217 C 1862 212 1873 210 1883 213 C 1895 217 1893 219 1872 224 C 1870 224 1881 240 1887 247 C 1895 255 1907 262 1913 262 C 1917 262 1915 252 1908 242 L 1903 234 L 1910 231 C 1924 225 1924 223 1907 207 L 1891 192 L 1895 182 C 1897 176 1899 172 1900 173 C 1911 177 1932 182 1934 182 C 1937 180 1942 156 1940 152 C 1940 151 1937 150 1935 150 C 1932 150 1929 149 1928 148 C 1926 146 1913 151 1913 155 C 1913 157 1912 157 1905 156 C 1900 154 1897 153 1897 150 C 1897 146 1888 118 1885 111 C 1880 101 1880 95 1887 92 C 1904 85 1912 72 1911 54 C 1910 34 1894 20 1874 20 Z M 1873 23 C 1887 22 1901 31 1907 44 C 1915 62 1904 84 1883 90 C 1877 92 1876 93 1877 98 C 1877 101 1880 108 1883 113 C 1885 119 1889 131 1890 139 L 1892 155 L 1902 158 C 1908 159 1913 161 1913 162 C 1915 167 1917 164 1916 159 C 1915 155 1916 154 1920 152 C 1927 150 1928 150 1926 152 C 1925 154 1927 154 1931 153 C 1936 152 1938 153 1939 155 C 1940 157 1939 160 1937 161 C 1936 162 1935 165 1935 167 C 1935 169 1935 170 1934 170 C 1933 170 1931 167 1931 164 C 1930 160 1929 158 1929 158 C 1927 160 1931 173 1933 173 C 1936 172 1936 177 1934 179 C 1933 180 1920 176 1906 172 L 1880 163 L 1878 147 C 1875 130 1874 125 1872 127 C 1872 127 1877 159 1878 163 C 1879 165 1883 167 1887 168 C 1897 171 1897 171 1888 190 C 1882 202 1875 209 1867 208 C 1862 207 1861 208 1854 225 C 1850 235 1843 252 1838 262 C 1830 280 1830 281 1833 285 C 1835 287 1839 288 1842 288 C 1847 288 1859 297 1857 299 C 1856 300 1848 301 1839 302 C 1820 303 1819 302 1812 287 L 1808 280 L 1818 263 C 1836 235 1849 205 1849 194 C 1849 187 1851 179 1856 170 C 1862 156 1862 153 1863 132 C 1863 120 1864 105 1864 100 C 1866 91 1866 91 1857 87 C 1829 74 1833 33 1863 24 C 1866 23 1870 23 1873 23 Z M 1860 140 C 1861 141 1861 144 1859 152 C 1857 164 1854 165 1853 155 C 1852 149 1853 146 1856 143 C 1858 141 1859 140 1860 140 Z M 1836 188 C 1838 188 1839 190 1839 194 C 1839 201 1839 201 1836 198 C 1832 194 1833 188 1836 188 Z M 1844 189 C 1845 189 1846 191 1846 194 C 1847 199 1845 203 1843 201 C 1841 199 1841 191 1843 189 L 1844 189 Z M 1884 202 C 1886 199 1909 228 1901 231 C 1897 232 1897 232 1901 237 C 1905 242 1911 253 1911 256 C 1911 265 1885 245 1878 231 C 1876 227 1876 226 1885 223 C 1891 221 1895 219 1895 217 C 1895 216 1892 213 1888 211 L 1880 208 L 1884 202 Z"/>
</svg>